<svg xmlns="http://www.w3.org/2000/svg" viewBox="0 0 64 64">
  <defs>
    <linearGradient id="bg" x1="0%" y1="0%" x2="100%" y2="100%">
      <stop offset="0%" stop-color="#1b1b1b" />
      <stop offset="100%" stop-color="#0f0f10" />
    </linearGradient>
    <linearGradient id="gold" x1="0%" y1="0%" x2="100%" y2="100%">
      <stop offset="0%" stop-color="#f3b237" />
      <stop offset="100%" stop-color="#ffd979" />
    </linearGradient>
  </defs>
  <rect x="4" y="4" width="56" height="56" rx="18" fill="url(#bg)" />
  <rect x="8" y="8" width="48" height="48" rx="15" fill="none" stroke="#f3b237" stroke-opacity="0.35" stroke-width="1.5" />
  <path d="M23 17h12.2c7 0 10.8 3.1 10.8 8.7 0 3.5-1.8 5.9-4.9 7.1 4 1.1 6.2 4 6.2 8.1 0 6.2-4.6 10.1-12.4 10.1H23V17zm11.2 13.1c3.1 0 4.8-1.2 4.8-3.6 0-2.3-1.7-3.4-4.8-3.4h-4.4v7h4.4zm1.4 14.8c3.3 0 5.1-1.4 5.1-4 0-2.7-1.8-4-5.1-4h-5.8v8h5.8z" fill="url(#gold)" />
  <circle cx="49" cy="17" r="3" fill="#f3b237" opacity="0.85" />
</svg>
